<svg xmlns="http://www.w3.org/2000/svg" version="1.1" xmlns:xlink="http://www.w3.org/1999/xlink" xmlns:svgjs="http://svgjs.dev/svgjs" width="1000" height="939" viewBox="0 0 1000 939"><g transform="matrix(1,0,0,1,-0.36870601417570015,0.38017121261839293)"><svg viewBox="0 0 263 247" data-background-color="#282634" preserveAspectRatio="xMidYMid meet" height="939" width="1000" xmlns="http://www.w3.org/2000/svg" xmlns:xlink="http://www.w3.org/1999/xlink"><g id="tight-bounds" transform="matrix(1,0,0,1,0.09696971221123363,-0.09999756175002972)"><svg viewBox="0 0 262.8060606060606 247.2" height="247.2" width="262.8060606060606"><g><svg viewBox="0 0 262.8060606060606 247.2" height="247.2" width="262.8060606060606"><g><svg viewBox="0 0 262.8060606060606 247.2" height="247.2" width="262.8060606060606"><g id="textblocktransform"><svg viewBox="0 0 262.8060606060606 247.2" height="247.2" width="262.8060606060606" id="textblock"><g><svg viewBox="0 0 262.8060606060606 247.2" height="247.2" width="262.8060606060606"><g><svg viewBox="0 0 262.8060606060606 247.2" height="247.2" width="262.8060606060606"><g transform="matrix(1,0,0,1,0,0)"><svg width="262.8060606060606" viewBox="2.490000009536743 -56.349998474121094 82.22000122070312 77.3499984741211" height="247.2" data-palette-color="#ff4057"><path d="M53.76-53.37L53.76-53.37Q53.76-52.93 53.74-52.49 53.71-52.05 53.66-51.66L53.66-51.66Q53.52-51.42 53.1-51.46 52.69-51.51 52.44-51.51L52.44-51.51Q52.2-51.51 52.03-51.44 51.86-51.37 51.86-51.12L51.86-51.12Q51.86-50.83 51.9-50.73L51.9-50.73Q51.51-50.78 51.07-50.83 50.63-50.88 50.29-51.12L50.29-51.12Q49.61-50.98 49-50.73 48.39-50.49 47.8-50.2 47.22-49.9 46.58-49.66 45.95-49.41 45.26-49.37L45.26-49.37Q44.82-48.88 44.14-48.63 43.46-48.39 42.72-48.19 41.99-48 41.36-47.73 40.72-47.46 40.33-46.92L40.33-46.92Q39.26-46.83 38.28-46.39 37.3-45.95 36.35-45.46 35.4-44.97 34.42-44.53 33.45-44.09 32.32-43.95L32.32-43.95Q32.03-43.65 31.62-43.46 31.2-43.26 30.76-43.09 30.32-42.92 29.93-42.72 29.54-42.53 29.3-42.19L29.3-42.19 29.2-42.19Q29-42.19 28.91-42.29 28.81-42.38 28.61-42.38L28.61-42.38Q28.47-42.38 28.42-42.33L28.42-42.33Q27.25-41.8 26.07-41.21 24.9-40.63 23.63-40.09L23.63-40.09Q21.14-39.06 18.6-38.09 16.06-37.11 13.72-35.69L13.72-35.69Q13.18-33.74 12.84-31.71 12.5-29.69 11.62-27.83L11.62-27.83 11.62-25.54Q11.13-24.61 10.99-23.49 10.84-22.36 10.84-21.34L10.84-21.34Q10.84-20.95 10.86-20.63 10.89-20.31 10.89-19.97L10.89-19.97Q12.3-20.36 13.65-20.85 14.99-21.34 16.36-21.73L16.36-21.73Q17.04-21.97 17.75-22.07 18.46-22.17 19.14-22.41L19.14-22.41Q19.68-22.56 20.26-22.83 20.85-23.1 21.39-23.34L21.39-23.34Q22.85-23.97 24.39-24.46 25.93-24.95 27.54-25.2L27.54-25.2Q28.03-25.59 28.61-25.93 29.2-26.27 29.79-26.27L29.79-26.27Q30.22-26.27 30.52-26.12L30.52-26.12Q31.35-26.61 32.47-27 33.59-27.39 34.57-27.29L34.57-27.29Q34.81-27.64 35.16-27.76 35.5-27.88 35.89-27.88L35.89-27.88Q36.08-27.88 36.25-27.86 36.43-27.83 36.67-27.83L36.67-27.83Q37.16-28.17 37.74-28.32 38.33-28.47 38.92-28.56 39.5-28.66 40.06-28.83 40.63-29 41.06-29.39L41.06-29.39Q41.75-29.35 42.16-29 42.58-28.66 42.87-28.17 43.16-27.69 43.36-27.15 43.55-26.61 43.85-26.12L43.85-26.12Q43.75-25.73 43.55-25.51 43.36-25.29 43.12-25.1 42.87-24.9 42.68-24.71 42.48-24.51 42.43-24.17L42.43-24.17Q40.72-24.17 39.14-23.68 37.55-23.19 36.01-22.56 34.47-21.92 32.89-21.36 31.3-20.8 29.64-20.65L29.64-20.65Q29.39-20.41 29-20.26L29-20.26 28.27-20.02Q27.93-19.92 27.64-19.75 27.34-19.58 27.2-19.24L27.2-19.24Q26.9-19.38 26.56-19.38L26.56-19.38Q25.73-19.38 24.95-18.95 24.17-18.51 23.19-18.51L23.19-18.51Q22.8-18.51 22.66-18.55L22.66-18.55Q22.41-18.12 21.95-17.92 21.48-17.72 20.97-17.6 20.46-17.48 20-17.29 19.53-17.09 19.29-16.6L19.29-16.6Q19.14-16.65 18.95-16.65L18.95-16.65 18.65-16.65Q17.87-16.65 16.87-16.38 15.87-16.11 15.43-15.38L15.43-15.38Q15.04-15.48 14.75-15.48L14.75-15.48Q14.06-15.48 13.53-15.21 12.99-14.94 12.45-14.6L12.45-14.6 11.38-13.92Q10.84-13.57 10.21-13.43L10.21-13.43Q8.94-11.62 8.45-9.28 7.96-6.93 7.74-4.39 7.52-1.86 7.32 0.66 7.13 3.17 6.54 5.27L6.54 5.27Q6.84 6.05 6.98 6.93 7.13 7.81 7.23 8.72 7.32 9.62 7.42 10.55 7.52 11.47 7.76 12.3L7.76 12.3Q8.01 13.33 8.72 14.14 9.42 14.94 9.72 15.97L9.72 15.97Q9.96 16.02 10.23 16.04 10.5 16.06 10.79 16.06L10.79 16.06Q12.55 16.06 13.89 15.38 15.23 14.7 16.41 13.7 17.58 12.7 18.68 11.55 19.78 10.4 21.04 9.52L21.04 9.52 21.97 9.52Q22.31 9.13 22.56 8.69 22.8 8.25 23.1 7.86 23.39 7.47 23.78 7.2 24.17 6.93 24.76 6.84L24.76 6.84Q24.9 6.1 25.44 5.71 25.98 5.32 26.17 4.54L26.17 4.54Q26.27 4.59 26.42 4.59L26.42 4.59Q26.81 4.59 27 4.39L27 4.39 27.73 3.71Q28.13 3.32 28.59 2.95 29.05 2.59 29.49 2.25L29.49 2.25Q30.91 1.22 32.32 0.22 33.74-0.78 34.91-2.1L34.91-2.1Q34.96-2.05 35.06-2.05L35.06-2.05Q35.45-2.05 35.6-2.29 35.74-2.54 36.28-2.44L36.28-2.44Q36.57-2.88 36.82-3.34 37.06-3.81 37.21-4.35L37.21-4.35 38.77-4.15Q39.55-4.05 40.33-4.05L40.33-4.05Q40.58-4.05 40.8-4.08 41.02-4.1 41.21-4.2L41.21-4.2Q41.8-3.27 41.85-2.22 41.89-1.17 42.09-0.15L42.09-0.15Q41.99-0.15 41.97-0.17 41.94-0.2 41.85-0.2L41.85-0.2Q41.6-0.2 41.38-0.02 41.16 0.15 40.92 0.39L40.92 0.39 40.43 0.88Q40.19 1.12 39.99 1.27L39.99 1.27Q39.45 1.61 38.87 1.88 38.28 2.15 37.74 2.44 37.21 2.73 36.72 3.15 36.23 3.56 35.94 4.2L35.94 4.2Q34.96 4.59 34.06 5.03 33.15 5.47 32.32 5.96L32.32 5.96Q32.08 6.2 31.88 6.45 31.69 6.69 31.59 6.98L31.59 6.98Q30.27 7.42 29.42 8.3 28.56 9.18 27.69 10.21L27.69 10.21 27.64 10.16Q27.29 10.16 27.22 10.4 27.15 10.64 26.66 10.55L26.66 10.55Q25.73 11.57 24.71 12.45 23.68 13.33 22.61 14.21 21.53 15.09 20.46 15.99 19.38 16.89 18.46 17.92L18.46 17.92Q17.82 18.12 17.24 18.41 16.65 18.7 16.36 19.29L16.36 19.29 16.21 19.29Q15.67 19.29 15.45 19.53 15.23 19.78 14.94 20.17L14.94 20.17Q13.92 20.41 12.84 20.7 11.77 21 10.64 21L10.64 21Q9.86 21 9.16 20.7 8.45 20.41 7.79 19.95 7.13 19.48 6.57 18.95 6.01 18.41 5.52 17.92L5.52 17.92Q5.22 16.94 4.76 15.89 4.3 14.84 4.3 13.87L4.3 13.87Q4.3 13.62 4.37 13.4 4.44 13.18 4.44 12.99L4.44 12.99Q4.44 12.65 4.22 12.7 4 12.74 3.91 12.45L3.91 12.45Q3.81 11.96 3.78 11.35 3.76 10.74 3.66 10.21L3.66 10.21Q3.52 9.08 3.3 7.91 3.08 6.74 2.83 5.62L2.83 5.62Q3.03 5.52 3.15 5.3 3.27 5.08 3.42 4.88L3.42 4.88Q3.27 4.49 3.15 4.03 3.03 3.56 3.03 3.08L3.03 3.08Q3.03 2.1 3.76 1.61L3.76 1.61Q3.76 1.27 3.59 1.1 3.42 0.93 3.42 0.54L3.42 0.54Q3.42 0.44 3.49-0.02 3.56-0.49 3.69-1.07 3.81-1.66 3.91-2.2 4-2.73 4.05-2.93L4.05-2.93Q4.39-5.18 4.64-7.35 4.88-9.52 5.32-11.72L5.32-11.72Q4.83-12.11 4.08-12.33 3.32-12.55 3.03-12.94L3.03-12.94Q2.78-13.28 2.64-13.82 2.49-14.36 2.49-14.75L2.49-14.75Q2.49-16.16 3.61-17.02 4.74-17.87 6.01-18.02L6.01-18.02Q6.64-19.73 6.96-21.51 7.28-23.29 7.47-25.1L7.47-25.1 7.86-28.76Q8.06-30.62 8.45-32.42L8.45-32.42 8.15-32.42Q7.18-32.42 6.25-32.13 5.32-31.84 4.35-31.84L4.35-31.84 4.25-31.84Q2.83-32.96 2.83-34.52L2.83-34.52Q2.83-35.45 3.22-36.38L3.22-36.38Q4-36.67 4.64-37.16 5.27-37.65 5.93-38.16 6.59-38.67 7.28-39.06 7.96-39.45 8.79-39.55L8.79-39.55Q8.89-40.97 9.28-42.38 9.67-43.8 9.67-45.21L9.67-45.21Q9.67-45.51 9.64-45.8 9.62-46.09 9.52-46.39L9.52-46.39Q9.86-46.83 9.99-47.31 10.11-47.8 10.11-48.34L10.11-48.34Q10.11-48.93 10.03-49.49 9.96-50.05 9.86-50.59L9.86-50.59Q10.3-50.78 10.55-51 10.79-51.22 11.01-51.42 11.23-51.61 11.57-51.76 11.91-51.9 12.55-51.9L12.55-51.9Q13.48-51.9 14.14-51.54 14.79-51.17 15.28-50.59 15.77-50 16.14-49.27 16.5-48.54 16.85-47.8L16.85-47.8Q16.75-47.27 16.41-47.02 16.06-46.78 15.82-46.39L15.82-46.39Q15.92-45.61 16.02-44.9 16.11-44.19 16.02-43.41L16.02-43.41Q16.5-43.16 16.94-43.16L16.94-43.16Q17.68-43.16 18.29-43.55 18.9-43.95 19.14-44.63L19.14-44.63 19.24-44.63Q19.38-44.63 19.51-44.53 19.63-44.43 19.82-44.43L19.82-44.43 20.02-44.43Q20.56-44.92 21.19-45.19 21.83-45.46 22.51-45.7 23.19-45.95 23.85-46.22 24.51-46.48 25.1-46.92L25.1-46.92Q25.39-46.78 25.73-46.78L25.73-46.78Q26.22-46.78 26.68-46.97 27.15-47.17 27.59-47.39 28.03-47.61 28.54-47.8 29.05-48 29.64-48L29.64-48Q29.74-48 29.88-47.97 30.03-47.95 30.13-47.95L30.13-47.95Q30.47-47.95 30.52-48.19 30.57-48.44 30.52-48.63L30.52-48.63Q32.08-49.02 33.23-49.54 34.38-50.05 35.79-50.73L35.79-50.73Q35.79-50.78 35.89-50.78L35.89-50.78Q36.04-50.78 36.08-50.63 36.13-50.49 36.13-50.39L36.13-50.39Q36.43-50.54 36.45-50.88 36.47-51.22 36.67-51.46L36.67-51.46Q36.87-51.42 37.21-51.42L37.21-51.42Q37.65-51.42 38.11-51.61 38.57-51.81 39.01-52.05 39.45-52.29 39.89-52.49 40.33-52.69 40.77-52.69L40.77-52.69Q41.16-52.69 41.41-52.49L41.41-52.49Q41.7-52.64 41.99-52.91 42.29-53.17 42.63-53.17L42.63-53.17Q42.72-53.17 42.8-53.13 42.87-53.08 42.97-53.03L42.97-53.03Q43.21-53.27 43.43-53.42 43.65-53.56 43.65-53.91L43.65-53.91Q45.46-54.1 47-54.71 48.54-55.32 49.95-56.35L49.95-56.35Q50.49-56.25 51-56.13 51.51-56.01 52.05-56.01L52.05-56.01Q52.34-55.47 52.59-54.93 52.83-54.39 53.66-54.44L53.66-54.44Q53.71-54.2 53.74-53.91 53.76-53.61 53.76-53.37ZM84.71-3.56L84.71-3.56Q84.57-2.88 84.1-2.47 83.64-2.05 83.01-1.81 82.37-1.56 81.71-1.49 81.05-1.42 80.52-1.42L80.52-1.42Q80.27-1.42 80.05-1.44 79.83-1.46 79.59-1.46L79.59-1.46Q79.34-1.46 79.34-1.22 79.34-0.98 79.1-0.88L79.1-0.88Q78.85-0.98 78.61-1.03 78.37-1.07 78.12-1.07L78.12-1.07Q77.78-1.07 77.46-1.03 77.15-0.98 76.85-0.98L76.85-0.98Q76.46-0.98 76.29-1.07 76.12-1.17 76-1.29 75.88-1.42 75.75-1.56 75.63-1.71 75.39-1.81L75.39-1.81Q75.05-1.95 74.83-1.86 74.61-1.76 74.17-2.15L74.17-2.15Q73.58-2.64 73.17-3.34 72.75-4.05 72.36-4.83 71.97-5.62 71.53-6.4 71.09-7.18 70.51-7.76L70.51-7.76 70.11-7.76Q69.24-7.76 68.89-7.03L68.89-7.03Q68.65-7.18 68.41-7.4 68.16-7.62 67.87-7.76L67.87-7.76Q66.75-7.42 65.52-7.18 64.3-6.93 63.08-6.93L63.08-6.93 62.4-6.93Q62.11-6.93 61.77-7.03L61.77-7.03Q61.28-6.84 60.89-6.57 60.5-6.3 60.01-6.3L60.01-6.3Q59.71-6.3 59.32-6.49L59.32-6.49Q59.03-6.49 59.06-6.25 59.08-6.01 58.74-6.01L58.74-6.01 58.3-6.01Q57.61-6.01 56.96-5.96 56.3-5.91 55.61-5.91L55.61-5.91Q54.69-5.91 53.71-6.15L53.71-6.15Q53.46-6.01 53.17-6.01L53.17-6.01Q52.98-5.91 52.88-5.69 52.78-5.47 52.68-5.3 52.59-5.13 52.41-5 52.24-4.88 51.95-4.93L51.95-4.93Q51.85-4.35 51.46-4 51.07-3.66 51.07-2.98L51.07-2.98Q50.53-2.69 50.19-2.25 49.85-1.81 49.51-1.32 49.17-0.83 48.8-0.39 48.44 0.05 47.9 0.29L47.9 0.29Q47.65 0.59 47.75 1.22L47.75 1.22Q47.21 1.66 46.43 2 45.65 2.34 44.97 2.34L44.97 2.34Q43.55 2.34 43.02 0.83L43.02 0.83Q43.02 0.34 43.09-0.22 43.16-0.78 43.31-1.29 43.45-1.81 43.75-2.22 44.04-2.64 44.58-2.83L44.58-2.83Q44.58-3.27 44.28-3.44 43.99-3.61 44.04-4.05L44.04-4.05Q45.36-4.69 46.34-5.71 47.31-6.74 48.12-7.89 48.92-9.03 49.75-10.21 50.58-11.38 51.61-12.3L51.61-12.3 51.61-13.33Q53.07-14.89 53.51-16.85L53.51-16.85Q54.05-16.94 54.22-17.33 54.39-17.72 54.39-18.26L54.39-18.26Q54.64-18.26 54.71-18.48 54.78-18.7 55.12-18.6L55.12-18.6Q55.56-19.78 56.1-20.75 56.64-21.73 57.18-22.73 57.71-23.73 58.13-24.8 58.54-25.88 58.74-27.2L58.74-27.2Q59.42-27.25 59.49-27.86 59.57-28.47 59.67-28.96L59.67-28.96Q60.4-29.64 60.76-30.57 61.13-31.49 61.42-32.5 61.72-33.5 62.08-34.5 62.45-35.5 63.13-36.28L63.13-36.28 63.13-36.43Q63.13-36.67 62.94-36.74 62.74-36.82 62.74-37.06L62.74-37.06Q62.79-37.11 62.79-37.16L62.79-37.16Q63.38-37.4 63.67-37.96 63.96-38.53 64.55-38.77L64.55-38.77Q65.57-37.94 66.35-37.77 67.14-37.6 68.41-37.5L68.41-37.5Q69.04-36.82 69.11-35.86 69.19-34.91 69.43-33.98L69.43-33.98Q69.82-32.42 70.29-30.93 70.75-29.44 70.99-27.88L70.99-27.88Q71.14-26.95 71.53-26.12 71.92-25.29 72.07-24.41L72.07-24.41Q72.17-23.73 72.07-22.88 71.97-22.02 72.26-21.39L72.26-21.39 72.6-20.61Q72.85-20.07 73.02-19.48 73.19-18.9 73.34-18.31L73.34-18.31Q73.73-16.85 74.05-15.16 74.36-13.48 75.05-12.11L75.05-12.11Q75.29-11.62 75.8-11.43 76.32-11.23 76.95-11.16 77.59-11.08 78.2-11.11 78.81-11.13 79.25-11.13L79.25-11.13 79.73-11.13Q80.03-11.13 80.32-11.04L80.32-11.04Q80.52-10.64 80.52-10.35L80.52-10.35Q80.52-9.77 80.12-9.42 79.73-9.08 79.73-8.64L79.73-8.64Q79.73-8.4 79.93-8.11L79.93-8.11Q79.73-8.15 79.34-8.15L79.34-8.15Q78.22-8.15 77.15-7.76L77.15-7.76Q77.54-6.93 78.2-6.37 78.85-5.81 79.59-5.32L79.59-5.32Q80.08-5.71 80.61-5.71L80.61-5.71Q81.2-5.71 81.71-5.44 82.22-5.18 82.81-5.18L82.81-5.18Q83.25-5.18 83.44-5.32L83.44-5.32Q83.84-4.88 84.08-4.42 84.32-3.96 84.71-3.56ZM69.43-11.38L69.43-11.38Q69.33-12.21 69.11-12.57 68.89-12.94 68.75-13.48L68.75-13.48Q68.55-14.16 68.48-14.94 68.41-15.72 68.26-16.46L68.26-16.46Q67.92-18.12 67.5-19.78 67.09-21.44 66.45-23L66.45-23Q66.65-23.29 66.65-23.54L66.65-23.54 66.65-23.68Q66.21-24.17 66.01-24.88 65.82-25.59 65.65-26.29 65.48-27 65.21-27.61 64.94-28.22 64.35-28.61L64.35-28.61Q64.21-28.32 64.21-27.93L64.21-27.93Q64.21-27.59 64.28-27.29 64.35-27 64.35-26.66L64.35-26.66Q63.86-26.42 63.64-25.9 63.43-25.39 62.94-25.1L62.94-25.1Q62.55-23.54 61.81-22.14 61.08-20.75 60.28-19.38 59.47-18.02 58.74-16.63 58.01-15.23 57.57-13.72L57.57-13.72Q56.93-13.28 56.71-12.6 56.49-11.91 56.49-11.23L56.49-11.23Q56.93-10.99 57.49-10.96 58.05-10.94 58.59-10.94 59.13-10.94 59.62-10.84 60.1-10.74 60.5-10.35L60.5-10.35Q61.13-10.55 61.89-10.62 62.64-10.69 63.13-11.04L63.13-11.04Q64.11-10.69 65.23-10.69L65.23-10.69Q65.82-10.69 66.38-10.79 66.94-10.89 67.48-11.04L67.48-11.04Q67.92-10.94 68.16-10.72 68.41-10.5 68.89-10.55L68.89-10.55Q69.14-10.74 69.19-10.96 69.24-11.18 69.43-11.38Z" opacity="1" transform="matrix(1,0,0,1,0,0)" fill="#ff4057" class="wordmark-text-0" data-fill-palette-color="primary" id="text-0"></path></svg></g></svg></g></svg></g></svg></g></svg></g></svg></g><defs></defs></svg><rect width="262.8060606060606" height="247.2" fill="none" stroke="none" visibility="hidden"></rect></g></svg></g></svg>